<svg width="26" height="26" viewBox="0 0 26 26" fill="none" xmlns="http://www.w3.org/2000/svg">
<path d="M13 25.25C19.7655 25.25 25.25 19.7655 25.25 13C25.25 6.23451 19.7655 0.75 13 0.75C6.23451 0.75 0.75 6.23451 0.75 13C0.75 19.7655 6.23451 25.25 13 25.25Z" fill="#FAFAFA" stroke="#FF1616" stroke-width="0.5"/>
<path d="M14.272 13L17.032 10.24C17.38 9.89197 17.38 9.31597 17.032 8.96797C16.684 8.61997 16.108 8.61997 15.76 8.96797L13 11.728L10.24 8.96797C9.89203 8.61997 9.31603 8.61997 8.96803 8.96797C8.62003 9.31597 8.62003 9.89197 8.96803 10.24L11.728 13L8.96803 15.76C8.62003 16.108 8.62003 16.684 8.96803 17.032C9.14803 17.212 9.37603 17.296 9.60403 17.296C9.83203 17.296 10.06 17.212 10.24 17.032L13 14.272L15.76 17.032C15.94 17.212 16.168 17.296 16.396 17.296C16.624 17.296 16.852 17.212 17.032 17.032C17.38 16.684 17.38 16.108 17.032 15.76L14.272 13Z" fill="#FF1616"/>
</svg>
