<svg width="32" height="32" viewBox="0 0 32 32" fill="none" xmlns="http://www.w3.org/2000/svg">
<path d="M15.1378 4.06951C15.255 4.02233 15.3804 3.99873 15.5067 4.00005C15.6331 4.00137 15.7579 4.02759 15.8741 4.0772L25.294 8.11429C25.4535 8.18271 25.5915 8.29305 25.6933 8.43358C25.7952 8.57412 25.8571 8.73961 25.8724 8.91249C25.8878 9.08537 25.8561 9.25918 25.7807 9.41549C25.7052 9.57179 25.5888 9.70475 25.4439 9.80025L25.4401 9.8041L25.4209 9.81755L25.3324 9.87907C24.8369 10.234 24.369 10.626 23.9329 11.0517C23.1755 11.7938 22.4968 12.682 22.2604 13.5586C22.7218 14.8947 23.3773 16.4249 23.9387 17.661C24.2443 18.3317 24.559 18.9982 24.8826 19.6604L27.9527 21.5059C28.5504 21.8643 29.0452 22.3714 29.3888 22.9778C29.7325 23.5842 29.9132 24.2693 29.9136 24.9663V28.0306C29.9137 28.2806 29.8164 28.5208 29.6423 28.7003C29.4682 28.8797 29.2311 28.9843 28.9812 28.9918L28.9523 28.0306L28.9812 28.9918H28.9158C28.648 28.9989 28.3801 28.9989 28.1122 28.9918C24.868 28.9162 21.6443 28.4535 18.5097 27.6134C12.9155 26.0909 6.3408 22.8516 3.0919 15.9443C3.0298 15.8127 2.9984 15.6687 3.00006 15.5232C3.00173 15.3776 3.03642 15.2344 3.10151 15.1042C4.10118 13.1068 6.11972 10.7538 8.33051 8.73138C10.5355 6.71092 13.0577 4.89999 15.1359 4.06951H15.1378ZM27.9911 27.0655V26.0332C15.828 24.9547 9.07449 19.9122 5.76215 14.4237C5.48724 14.8139 5.2431 15.1927 5.03932 15.5541C8.00946 21.4309 13.7806 24.3338 19.0153 25.7583C21.9459 26.5431 24.9584 26.9819 27.9911 27.0655V27.0655ZM26.9646 23.1534L24.2943 21.552L22.5834 23.263C24.3028 23.647 26.0448 23.9218 27.7989 24.0858C27.6212 23.6979 27.3304 23.3729 26.9646 23.1534V23.1534ZM20.5802 12.5243C21.0358 11.3632 21.8759 10.377 22.5853 9.67914C22.7448 9.52534 22.9006 9.37924 23.0505 9.24467L15.4935 6.00731C13.9113 6.71861 11.9504 8.08929 10.0914 9.73297L12.3311 11.9707C12.4203 12.0601 12.491 12.1662 12.5391 12.283C12.5873 12.3998 12.612 12.5249 12.6117 12.6512V18.9894C13.6556 19.7392 14.8302 20.4409 16.149 21.0733L18.1637 18.3858L14.6957 13.1837C14.592 13.0278 14.5362 12.845 14.5351 12.6577C14.5339 12.4705 14.5875 12.287 14.6892 12.1298C14.7908 11.9726 14.9362 11.8485 15.1074 11.7727C15.2787 11.697 15.4683 11.6729 15.653 11.7035L20.5802 12.5243V12.5243Z" fill="#F24E1E"/>
</svg>
