<svg width="22" height="22" viewBox="0 0 22 22" fill="none" xmlns="http://www.w3.org/2000/svg">
<path fill-rule="evenodd" clip-rule="evenodd" d="M10.75 21.75C4.82 21.75 0 16.93 0 11C0 5.07 4.82 0.25 10.75 0.25C16.68 0.25 21.5 5.07 21.5 11C21.5 16.93 16.68 21.75 10.75 21.75ZM10.75 1.75C9.97435 1.75 9.22068 1.84599 8.50024 2.02672C8.49753 2.09835 8.4843 2.1701 8.45999 2.24C8.05316 3.46264 7.73438 4.71197 7.50362 5.97655C9.66043 5.73766 11.8418 5.73782 13.9974 5.97703C13.7666 4.70939 13.4474 3.45654 13.04 2.23C13.0177 2.16306 13.0054 2.09494 13.0023 2.02736C12.2811 1.84622 11.5266 1.75 10.75 1.75ZM14.2336 7.51724C11.9231 7.22803 9.57765 7.22759 7.26705 7.51592C6.97784 9.82605 6.97764 12.171 7.26643 14.4828C9.57692 14.772 11.9224 14.7724 14.233 14.4841C14.5222 12.1739 14.5224 9.82896 14.2336 7.51724ZM5.73121 7.75117C5.49298 9.90816 5.49292 12.09 5.73101 14.247C4.46465 14.0162 3.21372 13.6972 1.99 13.29C1.9201 13.2657 1.84835 13.2525 1.77672 13.2497C1.59599 12.5293 1.5 11.7756 1.5 11C1.5 10.2234 1.59623 9.46879 1.7774 8.74753C1.84452 8.74418 1.91256 8.73193 1.98003 8.71C3.20703 8.30172 4.46138 7.98211 5.73121 7.75117ZM5.94581 6.19148C4.75197 6.38898 3.56953 6.66075 2.40724 7.00677C3.29357 5.16271 4.77371 3.65573 6.59812 2.73537C6.64078 2.74391 6.68484 2.7489 6.72999 2.75C6.39868 3.88109 6.13729 5.03088 5.94581 6.19148ZM15.7746 7.75405C17.0391 7.98477 18.2881 8.30342 19.51 8.71C19.5811 8.73664 19.6521 8.7475 19.7231 8.7496C19.904 9.47024 20 10.2241 20 11C20 11.7758 19.904 12.5296 19.7232 13.2502C19.6549 13.2537 19.5866 13.2668 19.52 13.29C18.294 13.698 17.0406 14.0174 15.7718 14.2483C16.0118 12.0926 16.0128 9.9111 15.7746 7.75405ZM19.0942 7.00974C17.9337 6.66327 16.7526 6.39107 15.5598 6.19314C15.3628 5.00081 15.0918 3.81984 14.7468 2.65893C16.6433 3.5715 18.1831 5.11233 19.0942 7.00974ZM6.72999 19.25C6.39865 18.1188 6.13724 16.9689 5.94576 15.8082C4.78383 15.6165 3.63298 15.354 2.5 15.02C2.49888 15.0647 2.49376 15.1085 2.48499 15.1511C3.37878 16.9233 4.82605 18.3707 6.59812 19.2646C6.64078 19.2561 6.68484 19.2511 6.72999 19.25ZM10.75 16.2C9.66422 16.2 8.57995 16.1409 7.5025 16.0222C7.73334 17.2901 8.0525 18.5432 8.45999 19.77C8.48316 19.8366 8.49626 19.9049 8.49979 19.9732C9.22037 20.154 9.97419 20.25 10.75 20.25C11.5251 20.25 12.2783 20.1541 12.9983 19.9737C13.0012 19.9025 13.0147 19.8306 13.04 19.76C13.447 18.537 13.7658 17.2873 13.9966 16.0224C12.9191 16.141 11.8353 16.2 10.75 16.2ZM14.7368 19.3458C15.0841 18.1844 15.357 17.0023 15.5555 15.8083C16.719 15.6166 17.8726 15.354 19.01 15.02C19.011 15.0601 19.015 15.0993 19.0219 15.1375C18.1011 16.9706 16.5886 18.4575 14.7368 19.3458Z" fill="#FAFAFA"/>
</svg>
