<svg width="17" height="17" viewBox="0 0 17 17" fill="none" xmlns="http://www.w3.org/2000/svg">
<path fill-rule="evenodd" clip-rule="evenodd" d="M0 7.6875C0 11.925 3.45 15.375 7.6875 15.375C11.925 15.375 15.375 11.925 15.375 7.6875C15.375 3.45 11.925 0 7.6875 0C3.45 0 0 3.45 0 7.6875ZM1.125 7.6875C1.125 4.0725 4.065 1.125 7.6875 1.125C11.31 1.125 14.25 4.0725 14.25 7.6875C14.25 11.3025 11.31 14.25 7.6875 14.25C4.065 14.25 1.125 11.3025 1.125 7.6875ZM15.165 15.96C15.2775 16.0725 15.42 16.125 15.5625 16.125C15.705 16.125 15.8475 16.0725 15.96 15.96C16.1775 15.7425 16.1775 15.3825 15.96 15.165L14.46 13.665C14.2425 13.4475 13.8825 13.4475 13.665 13.665C13.4475 13.8825 13.4475 14.2425 13.665 14.46L15.165 15.96Z" fill="#A8A8A8"/>
</svg>
