<svg width="256" height="256" viewBox="0 0 256 256" fill="none" xmlns="http://www.w3.org/2000/svg">
<path d="M116.796 18.6116C117.832 18.1946 118.94 17.9859 120.057 17.9976C121.174 18.0092 122.278 18.241 123.305 18.6796L206.588 54.3721C207.998 54.9771 209.218 55.9526 210.118 57.1951C211.019 58.4376 211.566 59.9007 211.702 61.4291C211.838 62.9576 211.558 64.4943 210.891 65.8762C210.223 67.2581 209.195 68.4336 207.913 69.278L207.879 69.312L207.709 69.4309L206.928 69.9748C202.547 73.1125 198.41 76.5784 194.554 80.3426C187.858 86.9033 181.858 94.7556 179.767 102.506C183.846 114.318 189.642 127.848 194.605 138.776C197.307 144.706 200.089 150.598 202.95 156.453L230.094 172.769C235.379 175.938 239.753 180.422 242.791 185.783C245.829 191.144 247.427 197.201 247.43 203.363V230.455C247.431 232.665 246.571 234.789 245.032 236.376C243.493 237.962 241.396 238.887 239.187 238.953L238.932 230.455L239.187 238.953H238.609C236.241 239.016 233.872 239.016 231.504 238.953C202.821 238.285 174.32 234.194 146.607 226.767C97.1477 213.306 39.0199 184.667 10.296 123.599C9.74693 122.435 9.46929 121.162 9.48402 119.875C9.49874 118.588 9.80543 117.322 10.381 116.171C19.2191 98.5118 37.0654 77.7082 56.6112 59.8279C76.1061 41.9647 98.4055 25.9541 116.779 18.6116H116.796ZM230.434 221.923V212.796C122.897 203.261 63.1889 158.679 33.904 110.154C31.4735 113.605 29.315 116.953 27.5134 120.148C53.7728 172.106 104.796 197.771 151.077 210.365C176.987 217.304 203.621 221.183 230.434 221.923V221.923ZM221.358 187.335L197.75 173.177L182.623 188.304C197.824 191.699 213.226 194.129 228.734 195.578C227.163 192.149 224.592 189.276 221.358 187.335V187.335ZM164.912 93.3619C168.941 83.0961 176.368 74.3769 182.64 68.2072C184.05 66.8475 185.427 65.5557 186.753 64.366L119.94 35.744C105.952 42.0327 88.6155 54.1511 72.18 68.6831L91.9808 88.4669C92.7695 89.2576 93.3946 90.1959 93.8204 91.2283C94.2461 92.2607 94.4643 93.3669 94.4623 94.4837V150.521C103.691 157.149 114.076 163.353 125.736 168.945L143.548 145.184L112.886 99.1917C111.97 97.8129 111.477 96.1966 111.467 94.5413C111.457 92.886 111.93 91.2637 112.829 89.8737C113.728 88.4838 115.013 87.3866 116.527 86.717C118.041 86.0474 119.717 85.8345 121.351 86.1044L164.912 93.3619V93.3619Z" fill="#F24E1E"/>
</svg>
